<svg id="Layer_1" data-name="Layer 1" xmlns="http://www.w3.org/2000/svg" viewBox="0 0 119.91 119.91"><defs><style>.cls-1{fill:#231f20;stroke:#231f20;stroke-linecap:round;stroke-linejoin:round;stroke-width:0.5px;}.cls-2{fill:#be1e2d;}.cls-3{fill:#fcf2e8;}</style></defs><title>icon-98</title><path class="cls-1" d="M-15.92,7" transform="translate(-11.14 -11.42)"/><rect class="cls-2" width="119.91" height="119.91"/><path class="cls-3" d="M53.17,99.14A17.58,17.58,0,0,1,45,97.54a9.11,9.11,0,0,1-4.27-4.7,20.2,20.2,0,0,1-1.27-7.65v-.87H49.84a15.48,15.48,0,0,0,.56,4.84c.38,1,1.33,1.57,2.84,1.57a2.72,2.72,0,0,0,2.27-.93,6.66,6.66,0,0,0,1-3.31q.23-2.37.23-6.51v-4.8a5.48,5.48,0,0,1-2.63,2.13,12.29,12.29,0,0,1-4,.87,10,10,0,0,1-6.87-2.13,12.12,12.12,0,0,1-3.74-6A27.76,27.76,0,0,1,38.35,62a29.65,29.65,0,0,1,1.44-9.78A12.54,12.54,0,0,1,44.5,45.8a15,15,0,0,1,8.67-2.27,15.59,15.59,0,0,1,8.62,2.14,12.29,12.29,0,0,1,4.77,6,24.78,24.78,0,0,1,1.5,9V80.85a33.09,33.09,0,0,1-1.23,9.42,12.16,12.16,0,0,1-4.44,6.5Q59.18,99.14,53.17,99.14Zm.14-29.5a3,3,0,0,0,2.13-.74,8.28,8.28,0,0,0,1.27-1.4V58.69a21.49,21.49,0,0,0-.26-3.44,5.82,5.82,0,0,0-1-2.54,2.67,2.67,0,0,0-2.27-1,2.53,2.53,0,0,0-2.2,1,6.68,6.68,0,0,0-1,3.07,47,47,0,0,0-.23,5c0,1.74.06,3.26.17,4.57a6.54,6.54,0,0,0,.9,3.08A2.75,2.75,0,0,0,53.31,69.64Z" transform="translate(-11.14 -11.42)"/><path class="cls-3" d="M89,99.21A15.56,15.56,0,0,1,80.28,97a11.92,11.92,0,0,1-4.68-6,25.59,25.59,0,0,1-1.4-8.78,25,25,0,0,1,.44-3.9,14.81,14.81,0,0,1,1.13-3.54,10.74,10.74,0,0,1,1.94-2.87,10,10,0,0,1,2.77-2,13.38,13.38,0,0,1-3.67-4.44,16.12,16.12,0,0,1-1.74-7.37,17.44,17.44,0,0,1,1.5-7.81,11.1,11.1,0,0,1,4.71-5A15.76,15.76,0,0,1,89,43.53,15.52,15.52,0,0,1,96.8,45.3a11.09,11.09,0,0,1,4.64,5,16.88,16.88,0,0,1,1.4,7.78,16.34,16.34,0,0,1-1.6,7.44,11.8,11.8,0,0,1-3.67,4.37,10,10,0,0,1,2.77,2,11,11,0,0,1,1.94,2.87,15.8,15.8,0,0,1,1.16,3.54,18.7,18.7,0,0,1,.4,3.9,23.05,23.05,0,0,1-1.3,8.78,12,12,0,0,1-4.7,6C95.65,98.49,92.72,99.21,89,99.21ZM89,91a2.81,2.81,0,0,0,2.61-1.34,7.64,7.64,0,0,0,1-3.17,32,32,0,0,0,.2-3.37,26.27,26.27,0,0,0-.17-4,7.37,7.37,0,0,0-1-3.17A2.88,2.88,0,0,0,89,74.71,2.78,2.78,0,0,0,86.49,76a7.32,7.32,0,0,0-1,3.13,34.49,34.49,0,0,0-.23,4,30.6,30.6,0,0,0,.2,3.41,7.29,7.29,0,0,0,1,3.17A2.84,2.84,0,0,0,89,91Zm0-25.1a2.31,2.31,0,0,0,1.87-.9A6.18,6.18,0,0,0,92,62.29a22.44,22.44,0,0,0,.37-4.47,9.58,9.58,0,0,0-.83-4.34A2.68,2.68,0,0,0,89,51.88a2.81,2.81,0,0,0-2.57,1.6,8.71,8.71,0,0,0-.9,4.27,23,23,0,0,0,.37,4.51A5.72,5.72,0,0,0,87.09,65,2.49,2.49,0,0,0,89,65.9Z" transform="translate(-11.14 -11.42)"/></svg>