<svg id="Layer_1" data-name="Layer 1" xmlns="http://www.w3.org/2000/svg" viewBox="0 0 120.36 120.36"><defs><style>.cls-1{fill:#231f20;stroke:#231f20;stroke-linejoin:round;stroke-width:0.5px;}.cls-1,.cls-3{stroke-linecap:round;}.cls-2,.cls-3{fill:none;stroke:#fcf2e8;stroke-miterlimit:10;stroke-width:9px;}</style></defs><title>icon-roast</title><path class="cls-1" d="M-15.92,7" transform="translate(-14.26 -11.2)"/><circle class="cls-2" cx="60.18" cy="60.18" r="55.68"/><line class="cls-2" x1="17.02" y1="95.17" x2="102.76" y2="95.17"/><path class="cls-3" d="M73.27,95a28.17,28.17,0,0,0,0-33.39,28.32,28.32,0,0,1-5.48-14.9,28.75,28.75,0,0,1,5.48-18.5" transform="translate(-14.26 -11.2)"/><path class="cls-3" d="M52.86,95a22.93,22.93,0,0,0,0-29.75A23.64,23.64,0,0,1,47.38,52,23.73,23.73,0,0,1,52.86,35.5" transform="translate(-14.26 -11.2)"/><path class="cls-3" d="M94.27,95a22.93,22.93,0,0,0,0-29.75A23.71,23.71,0,0,1,88.79,52,23.73,23.73,0,0,1,94.27,35.5" transform="translate(-14.26 -11.2)"/></svg>