<svg id="Layer_1" data-name="Layer 1" xmlns="http://www.w3.org/2000/svg" viewBox="0 0 136.21 42.18"><defs><style>.cls-1{fill:#22130b;}</style></defs><title>icon-indonesia</title><path class="cls-1" d="M52,20l1.76,2.23,2.08.57.66,1.42,1.81-2.08,1.42,1.42,2,.66h2.08l1.43-1,1.8,1.52,1.42,1.52,1,3.12L70,31.21l2.94.56H75.4l3.6.57h2.27l1.24-.94,3.5.94,1.62.95h2.55l2.47-.95,1.52.95.75.76,1.24-.76h.94l1.81-1.8.94-2.65.48-1.8,1.61-.86L104,26l1.33.38.57,1.14v1.33l.66,1.23,2.09.19,1.23-.57,1.14.38.85-.85,1.52.28,1.33,1.33,1.8.76,2-.48,1,.76.28,1,1.43.19,2.27-.28,1.9-.1,2.37.38v.95l.47,1.33v1.51l1,.48.38,1.23.48,2v1l-.95.95h3.6l-.57,1.14,1.14.28,1.42.76.76.38.95.38,1.8.47,1.23-.38,2.75-1,2.27.48,1.43-.48h1.8l.38-1.23,1.51.38.29,1,1.89.19.86.37V46h1.89l1.23,1.52-1,1.42.1.76-.76,1.9-.1,1.23L154,54.24l-.57.47L153.5,56l.19,1h.48l.28.57.29.85.56-.47.57.85h.76l.48.57v.85l-.76.38h-.57l-.85-.47h-.86l-.85-.1.66-.76-.38-.57-.94-.56-.67-.19-.28.57-2-.19-.38.47-.57-1-.95.57-.09-.86-.86.19-.94-.38-.38-.94-.86.56-.38-.66-.75.1-.38-.48-1.8-.57-.38-.85-2.18.57.19-.67-2.09-1.23-.85.29-1.61.28-.76.19-.38.76-.57.47-1-.28-.86.09-.28.48-.66-.1v.57l-2.28-.76H126a10.86,10.86,0,0,1-1.52-.85l-1-.19-.67.28-.47-.37-.95-.1-.57-.19h-1.33l-.56-.57-.86.57-1-.66-.94.19v.94l-.86-.75-.56.38.66.75-1.23-.28-.76-.38H112l-.76-.47-1-.19-1.14.09-.47-.66-1.14.76H107l-.66-.67-1.14.19-2-.66H100.8l-3.89-1.61-.56-.57-.48.09L95,49.31l-3.6-1.42-3.13-1.14-2.66-.47L84.4,46H81.84l-.75-.85-4.27-.57L76.54,46l-.86-.38H74.54l-1-.28-.85-.47L74,44.67l-.19-1.14h-.48l-1.89,1.14-.19.47-.86-.57-1.51.1-.19.85-.76.95h-2l-2.56-.29-2.28-.85H58.9l-.28-.66-.76-.38-1,.09-.66-1-1.14-.85L52.84,42l-3-.19-1.89-.76-2.75.1-.47-.29H42.13l-2.28-.19-.66-.56-1.42-.29-.48-1.33.67-.66.19-.57h.56v-1a9.36,9.36,0,0,0,1.43-.94,4,4,0,0,0,0-1.05l-1.43-.28-1.42.28h-1l-.76-.75-.66-.19h-.67l-1.8-1.62-1.23.1-.57.57-1.42-.1-2.65-.19-.95.48H24.31l-1.24-.57-1.13-.19-.48.47-.57-.09V30.83l1.33-.48.19-.66.85-.29.19,1.05L24,31.77l.86-.09v-1l2-1.71-.29-.66.76-1.14.57.57.57-.1.76-.66.47-.57v-3l.57-1.61.57-.86.28-1.32h.76l.28-1.14h1.24L34,19l-.29,1.33.66.18.86-.09.57-1.23L37,20l1.23.38.66.47h.48l.76-.66.47.47.76-.66.85.19.67.1-.19,1.23.75-.29h.86l.76-.57.47.76.76.1.57-.29-.29-.94.48-.29-.19-1H48l.57.66.67.29.85-.48.76-.09Z" transform="translate(-20.89 -18.41)"/></svg>