<svg id="Layer_1" data-name="Layer 1" xmlns="http://www.w3.org/2000/svg" viewBox="0 0 113.2 114.57"><defs><style>.cls-1,.cls-2{fill:#231f20;}.cls-1{stroke:#231f20;stroke-linecap:round;stroke-linejoin:round;stroke-width:0.5px;}.cls-3{fill:#fff;}</style></defs><title>icon-world</title><path class="cls-1" d="M94.26,55.7" transform="translate(-12.53 -9.18)"/><path d="M44.42,98.13a53.67,53.67,0,0,1,22.21-6V68.28H36.32A68.78,68.78,0,0,0,44.42,98.13Z" transform="translate(-12.53 -9.18)"/><path d="M71.65,92.13a54,54,0,0,1,23.41,6.4,69.58,69.58,0,0,0,8.23-30.25H71.65Z" transform="translate(-12.53 -9.18)"/><path d="M71.65,40V63.28h31.62a69.6,69.6,0,0,0-8-29.83A53.27,53.27,0,0,1,71.65,40Z" transform="translate(-12.53 -9.18)"/><path d="M36.32,63.28H66.65V39.91a53.46,53.46,0,0,1-22.34-6.23A69,69,0,0,0,36.32,63.28Z" transform="translate(-12.53 -9.18)"/><path d="M105.77,25.9c-.62.57-1.26,1.13-1.9,1.67a50.63,50.63,0,0,1-4.33,3.27,74.39,74.39,0,0,1,8.73,32.44h17.46a56.57,56.57,0,0,0-18.2-39.12,1,1,0,0,1-.2.25C106.82,24.93,106.3,25.41,105.77,25.9Z" transform="translate(-12.53 -9.18)"/><path d="M66.65,120V97.15a48.54,48.54,0,0,0-19.73,5.34,82.19,82.19,0,0,0,10.66,13.65q1.56,1.62,3.22,3.18t3.25,2.9c1.68.15,3.38.24,5.1.24a2.5,2.5,0,0,1-2.5-2.5Z" transform="translate(-12.53 -9.18)"/><path d="M36.8,22.32c.64.59,1.3,1.16,2,1.7a45.25,45.25,0,0,0,3.7,2.74,84.06,84.06,0,0,1,5.73-8.19c1.07-1.36,2.2-2.71,3.38-4s2.24-2.45,3.43-3.65a56.54,56.54,0,0,0-20,9.71l.14.11A22.18,22.18,0,0,0,36.8,22.32Z" transform="translate(-12.53 -9.18)"/><path d="M71.65,14.18V35A48.5,48.5,0,0,0,92.82,29.1,81.8,81.8,0,0,0,82.82,16c-1.06-1.13-2.15-2.25-3.29-3.34s-2.17-2-3.32-3Q74,9.29,71.68,9.18v5Z" transform="translate(-12.53 -9.18)"/><path d="M48.19,113a80.83,80.83,0,0,1-5.61-8c-1.27.83-2.49,1.71-3.68,2.66-.68.54-1.34,1.09-2,1.67s-1.25,1.08-1.84,1.7A56.36,56.36,0,0,0,55,120.67c-1.18-1.19-2.32-2.41-3.43-3.64S49.27,114.41,48.19,113Z" transform="translate(-12.53 -9.18)"/><path d="M92.45,19.7c1.66,2.21,3.2,4.46,4.61,6.77q1.47-1,2.88-2.13c.67-.54,1.32-1.1,2-1.67s1.22-1.13,1.81-1.72A56.7,56.7,0,0,0,85.5,11.53c1.15,1.26,2.36,2.55,3.48,3.88S91.34,18.24,92.45,19.7Z" transform="translate(-12.53 -9.18)"/><path d="M17.53,63.28H31.31A73.86,73.86,0,0,1,40,31.12a51.55,51.55,0,0,1-5.17-3.91c-.65-.55-1.28-1.11-1.9-1.69-.45-.42-.9-.83-1.33-1.26a2.34,2.34,0,0,1-.39-.53A56.55,56.55,0,0,0,12.53,63.28Z" transform="translate(-12.53 -9.18)"/><path d="M34.9,104.41a58.38,58.38,0,0,1,5.19-3.79,73.74,73.74,0,0,1-8.78-32.37H12.53A56.5,56.5,0,0,0,31.18,107.8c.59-.59,1.19-1.16,1.8-1.72S34.25,105,34.9,104.41Z" transform="translate(-12.53 -9.18)"/><path d="M99.65,107.47c-.9-.7-1.82-1.38-2.76-2a72.36,72.36,0,0,1-4.4,6.42c-1.1,1.46-2.25,2.9-3.47,4.31s-2.3,2.6-3.51,3.86a56.19,56.19,0,0,0,18-9.22c-.6-.58-1.22-1.15-1.85-1.69S100.29,108,99.65,107.47Z" transform="translate(-12.53 -9.18)"/><path d="M120.73,68.28H108.27a74.38,74.38,0,0,1-8.93,32.83c1.46,1,2.88,2,4.25,3.13.65.54,1.3,1.09,1.94,1.66s1.21,1.13,1.8,1.7a56.53,56.53,0,0,0,18.4-39.32Z" transform="translate(-12.53 -9.18)"/><path d="M57.55,15.41a82.22,82.22,0,0,0-10.8,13.92,48.64,48.64,0,0,0,19.9,5.57V9.18q-1.32.06-2.61.18c-1.11,1-2.19,1.92-3.24,2.9S58.66,14.29,57.55,15.41Z" transform="translate(-12.53 -9.18)"/><path d="M82.76,115.61a80.62,80.62,0,0,0,9.79-12.74,49.13,49.13,0,0,0-20.9-5.74V120a2.5,2.5,0,0,1-2.5,2.51h0a58.48,58.48,0,0,0,7-.45q1.71-1.5,3.32-3C80.54,118,81.71,116.75,82.76,115.61Z" transform="translate(-12.53 -9.18)"/><path class="cls-2" d="M66.65,92.14a53.67,53.67,0,0,0-22.21,6,68.78,68.78,0,0,1-8.1-29.85H66.65Zm0-28.86H36.32a69,69,0,0,1,8-29.6,53.56,53.56,0,0,0,22.33,6.23ZM95.06,98.53a54,54,0,0,0-23.41-6.4V68.28h31.62A69.58,69.58,0,0,1,95,98.53ZM71.65,63.28V40a53.41,53.41,0,0,0,23.61-6.54,69.6,69.6,0,0,1,8,29.83Z" transform="translate(-12.53 -9.18)"/><rect class="cls-3" x="54.12" y="109.85" width="5.01" height="4.72"/></svg>