<svg id="Layer_1" data-name="Layer 1" xmlns="http://www.w3.org/2000/svg" viewBox="0 0 133.07 88.02"><defs><style>.cls-1{fill:#231f20;stroke:#231f20;stroke-linecap:round;stroke-linejoin:round;stroke-width:0.5px;}</style></defs><title>icon-mex</title><path class="cls-1" d="M4.61,24.27l10-1.05v1.05l16.22,6.42H43.23v-2.8l8.17.35v1.52l3.15.93,2,2.8,1.4.93.93,2.8s-.12,1.87.58,2,6,3.62,6,3.62l1.4-1.29.81-2.92L73,38.27l1.75,1.64L77,42v2.33l2.57,2.92v1.4l2.21.7V51l.47,1.75,1.17,2.56,3.73,1.87H89l1.4.58H92l-.58,2-2.22.93v3.15l-.93,1,1,3.39v4l-1,1.17,1.28,4.09,1.64,1.05-.82,2.21,2.1,3,2.8,3.26.47,2.46,2.33,2,2.69.58,1.75,1.17s.23,1.17.58,1.17,4.32-.59,4.32-.59.35-1,.81-1,3,.35,3,.35l3.5-1.16h2l4-2.92V86.59l1.17-.59V81.1l3.73-1.75,2.8.12,2.69-1.17,1.51.12,2.57.7,1.29-.93.7,2.68-1.52,2.45-1,1.28-.23,1.75L133,87.64v2l1.41.24-1.52,3.85L132,91.37l-1.17,1.52h-1.51l-.94,2.33-1.63.47H118.5l.12,2.33h-1.75l2.22,2.57,1.4.7.11,1.4h1.05l-.11,1.64h-5.72l-2.57,2.91.94,1.05-.59,2.45-4.55-4.31-2.8-2-3.38-1.63-2.8.83-1.29.57-3.62,1.52-2.8-.82-3.38-.7-1.17-1.28-2.1-.12-1-1.28-3.85-.94-2.57-.93-3.15-1.4-4.2-3.5-1.28.46-5.49-1.86-1.4-2.45-2.1-.82-2.22-.82-3.73-5.6,1.52-.23L55.6,81.8l1.17-1.4.12-1.63-2.1-2.92-.94-2.33-3.73-5-3.39-3.27-.46-1.51-2.22-.12V61.38l-4.2-2.68-1.63-.47.93-2.57-.93-1.75-1.41-.23-1.05-2-2-.47-.82-2L33.55,48l-3.15-.7-1.29-2L26.31,42,24.8,39l-1.06-1.52.12-1.64s-2.92-2.21-1.75-2.56S22,30.92,22,30.92l-2.33-.23-.23-1.28-1.52-1.05-.23,1.4-3.62-2.22.35,1.17L13.94,31l.47,1.28L15.34,35l-.46,1.63,1.16,2,2.69,1.76.7,1,.23,1.4,2,.7.12,1.4,1.4.58-.35,2.33L25,49.59l.58,1.64,1.87,3.27,1.17.35.7,2.45.93,1.63,1.4,2.8.93,1.17L32.5,64l.46,2,1.29,1,.35-1.86L36,67l.81,1.4L38,69.69l-.35,1.14-1.87,1.52L34.6,69.69,32.5,67.8,31,66.17l-2.1-1.52-1.28-.82L26.43,62.2l.23-2.57-.93-2.8-.93-1.28-2.81-2-.58-2.1-1.87,1.75L18,52.28,16,51l-2.33-2.69H16l1.87,1.17.23-2-.35-2.56-1.4-2-1.75-2.21-4.08-2.11.11-1.4-.46-1.51-1.4-1.4.11-1.4-1-1.17L8,30.46,6.12,28.94l.59-1.63Z" transform="translate(-4.36 -22.97)"/></svg>