<svg id="Layer_1" data-name="Layer 1" xmlns="http://www.w3.org/2000/svg" viewBox="0 0 339.14 142.5"><defs><style>.cls-1{fill:#231f20;stroke:#231f20;stroke-linecap:round;stroke-linejoin:round;stroke-width:0.5px;}</style></defs><title>icon-africa</title><path class="cls-1" d="M-203.93-2.54l10-1v1l16.22,6.42h12.37V1.08l8.17.35V3l3.15.93,2,2.8,1.4.93.93,2.8s-.12,1.87.58,2,6,3.62,6,3.62l1.41-1.29.81-2.92,5.37-.35,1.75,1.64,2.22,2.1v2.33l2.57,2.92v1.4l2.21.7v1.63l.47,1.76,1.17,2.56,3.73,1.87h1.87l1.4.58h1.63l-.58,2-2.22.93V37l-.93,1,1,3.39v4l-1,1.17,1.28,4.09,1.64,1-.82,2.21,2.1,3,2.8,3.26.47,2.46,2.33,2,2.68.58,1.76,1.17s.23,1.17.58,1.17,4.32-.59,4.32-.59.35-1.05.81-1.05,3,.35,3,.35l3.5-1.16h2l4-2.92V59.78l1.17-.59v-4.9l3.73-1.75,2.8.12,2.69-1.17,1.51.12,2.57.7,1.28-.93.7,2.68-1.51,2.45-1,1.28-.24,1.75-1.4,1.29v2l1.4.24-1.51,3.85-.82-2.34-1.17,1.52h-1.51l-.94,2.33-1.63.47H-90l.12,2.33h-1.75l2.22,2.57,1.4.7.11,1.4h1.05L-87,77.52h-5.72l-2.57,2.91.94,1-.59,2.45-4.55-4.31-2.8-2L-105.66,76l-2.81.83-1.28.57-3.62,1.52-2.8-.82-3.38-.7-1.17-1.28-2.1-.12-1.05-1.28-3.85-.94-2.57-.93-3.15-1.4-4.2-3.5-1.28.46-5.49-1.86-1.4-2.45-2.1-.82-2.22-.82-3.73-5.6,1.52-.23-.59-1.64,1.17-1.4.12-1.63-2.1-2.92-.94-2.33-3.73-5-3.39-3.27-.46-1.51-2.22-.12V34.57l-4.2-2.68-1.64-.47.94-2.57-.94-1.75-1.4-.23-1.05-2-2-.47-.82-2,.59-1.28-3.15-.7-1.29-2-2.8-3.27-1.52-3-1-1.51.12-1.64s-2.92-2.21-1.75-2.56-.12-2.34-.12-2.34l-2.33-.23-.23-1.28-1.52-1-.23,1.4L-194.47.73l.35,1.17-.47,2.33.47,1.28.93,2.69-.47,1.63,1.17,2,2.69,1.76.7,1,.23,1.4,2,.7.12,1.4,1.4.58-.35,2.33,2.22,1.75.58,1.64,1.87,3.27,1.16.35.71,2.45.93,1.63,1.4,2.8.93,1.17-.11,1,.46,2,1.29,1.05.35-1.86,1.4,1.86.81,1.4,1.17,1.31L-170.9,44l-1.87,1.52-1.16-2.66L-176,41l-1.52-1.63-2.1-1.52-1.29-.82-1.16-1.63.23-2.57-.93-2.8-.94-1.28-2.8-2-.58-2.1L-189,26.4l-1.51-.93-2-1.29-2.33-2.68h2.33l1.87,1.17.23-2-.35-2.56-1.4-2-1.75-2.21L-198,11.81l.11-1.4-.46-1.51-1.4-1.4.11-1.4-1-1.17.12-1.28-1.87-1.52.59-1.63Z" transform="translate(204.18 3.84)"/><polygon class="cls-1" points="264.42 8.28 263.45 10.39 264.42 12.02 261.99 14.13 264.42 14.95 271.9 17.22 272.7 19.01 278.41 20.64 281.17 19.82 281.17 17.87 284.42 15.92 287.35 17.39 290.76 17.55 293.2 18.69 298.73 20.64 301.33 18.36 304.42 19.01 308 19.17 308.65 21.77 307.83 25.84 303.93 21.94 305.72 25.84 310.27 32.83 310.27 35.27 312.71 36.24 312.71 38.85 313.52 42.42 315.8 44.05 317.1 48.76 320.84 50.39 320.84 52.02 325.07 54.13 324.09 55.92 326.04 57.87 328.97 57.87 332.38 56.73 335.31 56.41 338.89 55.1 338.89 59.82 336.12 64.37 334.33 68.6 328.32 74.13 324.42 77.33 321 80.95 318.24 83.23 316.45 87.78 316.94 89.9 316.78 92.34 317.91 95.1 319.54 96.89 319.54 100.47 319.7 103.39 320.35 105.34 318.4 106.97 316.29 108.92 313.36 110.71 309.46 113.47 308.16 114.94 309.46 117.7 309.46 121.6 305.56 123.88 304.75 125.5 304.75 130.06 302.31 131.68 300.44 134.44 297.43 137.53 294.34 139.65 290.93 140.95 287.51 140.95 284.26 140.95 280.85 142.25 277.59 140.95 277.27 137.37 278.08 134.44 275.27 131.36 271.9 127.94 271.25 123.23 271.09 119.49 268 113.63 265.56 110.38 265.56 105.99 267.51 101.44 269.79 99.65 269.63 96.89 268 94.12 269.14 92.5 266.05 85.51 260.36 78.35 261.82 77.33 262.15 73.8 262.64 71.04 260.36 68.76 255.81 69.09 253.86 68.27 252.56 66 248.65 65.67 245.89 66.65 242.96 66.97 240.69 68.6 238.09 67.95 234.18 67.79 231.75 68.6 229.63 69.57 225.73 67.14 223.62 65.67 220.04 63.56 219.23 60.47 217.6 58.36 215.65 56.57 213.54 54.94 213.54 53.15 212.07 49.9 213.05 47.79 214.02 45.19 214.51 43.72 213.86 41.45 214.51 39.33 212.07 37.06 214.19 33.97 216.14 31.69 217.28 29.09 219.88 25.68 223.45 23.89 226.05 21.61 226.05 19.01 227.35 17.55 228.66 15.27 231.42 14.46 232.72 11.37 234.83 10.23 235 11.86 240.04 11.53 243.29 10.72 246.22 9.74 251.42 9.26 253.21 9.42 256.94 8.28 259.55 8.28 262.15 7.63 264.42 8.28"/><path class="cls-1" d="M-15.92,7" transform="translate(204.18 3.84)"/></svg>