<svg id="Layer_1" data-name="Layer 1" xmlns="http://www.w3.org/2000/svg" viewBox="0 0 135.29 152.9"><defs><style>.cls-1{fill:#231f20;stroke:#231f20;stroke-linecap:round;stroke-miterlimit:10;stroke-width:0.5px;}</style></defs><title>icon-latin-am</title><path class="cls-1" d="M3.53,34.32H7.06l2.35,1.76,3.92,1.18h7.12l1.21,1.46.64,1.71v.92l2.56.78.78-1.56,1.63.28,1.92,1.64.64,2.7.72,1.42,2.91.93-1.07,6.4,1.07,1-.71,1.78,2,2.42.78,1h1.57l.85.86h4.69a24.19,24.19,0,0,0,2.63-2.78c-.07-.21,0-3,0-3l1.14.71,2.7-.86,1.64,1.07L49.6,58.7l-.5,1.57H48l.24,3.14L46.36,65H55.3l1.28,1.7L57.29,68l-.85,2.83-.71,3.41,3.55,3.26h2.55l1.85-1.56,2.55,1.56,2,1.42,2-2.12V74.47l6.39,1.42,1.56,1.28,1.14-4.11V70.93l1.7.14v1.28h1.28l.85,1.84h2.13l1.27-1.56.71,2.27,2.84-.43,3.41-1.41V74.9l3.4,1.85,3.27,3,1.7,2.12h4.68l3.27,1.57,2.27,2.27,1,2.55,1.71,2-4.26,6.24h2.13l1.42.85h2l2.56-2.69,2.69.42,2.13,1.56v2h5.25V100l2.84-1.28,2.84,3.83,3.83,1.07v7.16l-2,1.71-.14,1.84-2.55,1.56-.57,3H130.8l-.85,5.82-2.13,6-2.84,4-1.84,2.83h-3.55l-2,.57-2.13.71-2.55,1.56-1.7,1.14-1,2.69.86,2.13L109,147.56l-3.13,5.11h-2l1.28-3L101,153.8l-.43,2.7-3,.85H95l-1.42-3.26-1.14,1.42,1,1.84v2.42l-1.56,3.4H86.24L85,164.31l-.42,2-2.41.71-1.57-.85-.14,2-1,2.41-.14,1.85-2.84,1.13-1.28,1.28.14,2.13h2.13l-3.12,2.27-1.28,2-2.18.71.24,2.42-2.88.71-1.42,1.41-.43-2.55-2.84-1,1.71-1.56.14-3.27.85-2.13L65,173.53h2.56l1.42-2.27,1-3.26-.14-1.85-1.42-.28.14-1.56,1.42-1.71.28-4,3.41-5.53.57-6.53,2.55-7,2-6,.42-6L77.87,126l-1.71-1.42L73.33,122l-2.23-.15-2.46-3.4.71-2.56-2.13-.71-2-4.82-1.85-3.27-2-3.47-.57-2.49L63.25,99l-.14-1.28-1.56-.14,1.42-6h2l-.28-1.56.71-1.42,2.55-.43-.42-5.82-1.85-2.13-.28-1.56L64,77.45l-1.7,1.71-.43,1.42L59.7,78.87l-2.27-.14L55.16,76.6H53l-.28-3.12-2.13-1.56-1-2.7L43,68.66,38.7,65.11,36.85,65l-1.7.71-3.69-.15-5-2.41-1.41-1.84-2,.42-3.83-4.11.28-4.26-1.28-2.84-3.83-2.55-.14-2.42-1.14-1.27-2.69-3L9.32,37.44l-2.84-.57.29,2.55,1.7,1.28v1.56l1.14,2.55,1.56,2.84,1.13,2,.85,3.12-2-1.7-1.7-2L8.76,46.8l-3.41-3L7.05,43,4.21,39.14l.86-1.56Z" transform="translate(-3.14 -34.07)"/></svg>