<svg id="Layer_1" data-name="Layer 1" xmlns="http://www.w3.org/2000/svg" viewBox="0 0 84.41 128.62"><defs><style>.cls-1{fill:#231f20;stroke:#231f20;stroke-linecap:round;stroke-miterlimit:10;}</style></defs><title>icon-peru</title><path class="cls-1" d="M60,10.72l2.29,1.51V14.8h2.23l2.8,2.38,1.29,3.65h3v3.66h2.8l2.8,1.08,3.22-1.93,2.58.43,3-.65,2.8,2.16H91.4l1.46,1.59-4.43,7H90.7l1.67,1.48,1,2.06H91.09l-.49-1-2.75.1L86.5,38.27H83.92L82,39.15H80.9l-3.14,2.06L75.89,42.5,73.32,43v1.87l-.69,1.08v.89l-1.08,1.76-.1,1.08.1,2.46-1.57,1L68.05,55l-.69,1.48.77,1.82H66.07L66,60.21l1.77,1.18-.39,1,1.11.48.88,2.64,1,.6.3,1.08H71.8l1.37,2.66s-1.77,2.36-1.47,2.36,5.5.68,5.5.68l.39,1.48,1,.74-.1,1.08h6L89.55,72l.59.89-1.07.8.71.5-.82.86.14,7.45,1.34.78,2.94-.64H96l6,9.61v1.93l-1.62.84-.14,5.22-1.24,1,1.67,2.45-.69,1.24-.72,1.93-.84.24V108l-.89.56.16,1.45,1.41,1.2-1,1-.57,1.93L98.7,118h1.65l.81.54-1,.8-.07,1.48L99,121.5l-.81,1.26-1.18.73-.36,1.06-2.52,2.88L95.76,129l-1.12,2-1.4.7L93.8,134l-2.38,1.12-7.86-4.2-.72-3-2.52-1-2.53-1.54-2.24-3.65-2.81.27-2.91-.42-5.24-4.34-3.08-1.41-2.07-1.12-1.82-1.93-1.29-2.25L53,106.89l-1.4-2.25,1.29-3.09-.45-2-1.82-2.24-.7-2.39L47.07,91l-1-2.8-2.53-1.53V84.86l-2.94-5.33-.84-1.86-3.37-7.21-1.83-3.32L31.5,62.79l-1.41-4.06-2.52-3.51L24.66,53.4l-4.38-2.79V49.2h1.4l.14-2.81-1.54-1.83V42.74l-1.69-2.38V38.54l2-1.94,1.29-.28,2-1.82L26.06,33l.41,3.22L24.93,37,24.79,39l1.54-.42,2.81.84,1.41-.28L30.8,41l1.68,1.54,1.94.43L34,40.81l2.38-.14-.13-3.22.69-1.4,1-1.29.9-2.12L41.18,30l5-2.11,2.94-1.28,4.64-4.07,2.94-2.81.7-3.9,1.41-.28L58,12.16l-2.1-3.79,1.82,1Z" transform="translate(-18.09 -7.08)"/></svg>