<svg id="Layer_1" data-name="Layer 1" xmlns="http://www.w3.org/2000/svg" viewBox="0 0 24.48 21.99"><defs><style>.cls-1{fill:#231f20;stroke:#231f20;stroke-linecap:round;stroke-linejoin:round;stroke-width:0.5px;}.cls-2{fill:#22130b;}</style></defs><title>icon-finch</title><path class="cls-1" d="M-64.54-40" transform="translate(-4.71 -4.77)"/><path class="cls-2" d="M4.71,26a2.36,2.36,0,0,0,.93-.16,2.24,2.24,0,0,0,1,0c.28.22.65.58,3-.53a11.57,11.57,0,0,0,1.74.3,1.85,1.85,0,0,0,1.76.86,2.68,2.68,0,0,0,.93.22l0,0a.71.71,0,0,1,.28-.06,1.05,1.05,0,0,1,.35.08h0a19.87,19.87,0,0,0,4.7-.22,14.06,14.06,0,0,0,4.75-2.21c1-.79,3.57-3.67,3.85-6.38a11,11,0,0,0-.91-5.67,3.26,3.26,0,0,1,.16-2.77,8.28,8.28,0,0,0,.43-1.66c0-.14,1.54-2,1.54-2s-.75-.65-3.57-.85c-.3-.14-1.9-.54-4.45,1.3s-1.8,4-4.15,6.4-4.56,5.46-5,5.95S10.23,20,10.23,20.89l.51-.43,0,.29h.67a16.61,16.61,0,0,1-2,1.8C8.72,23,5.23,25.71,4.71,26ZM24,7.16a1.08,1.08,0,0,1,1.16-1,1,1,0,0,1,.16,1.28C24.93,7.69,24.57,7.55,24,7.16Z" transform="translate(-4.71 -4.77)"/></svg>