<svg id="Layer_1" data-name="Layer 1" xmlns="http://www.w3.org/2000/svg" viewBox="0 0 547.09 354.28"><defs><style>.cls-1{fill:#fff;}</style></defs><title>logo-twin-finch-wht</title><path class="cls-1" d="M159.76,217.73h-17.1V201.15H194v16.58H176.86v90.52H158.44l1.32-90.17Z" transform="translate(-142.66 -12.62)"/><path class="cls-1" d="M267.93,201.15h17.44l-17.31,107.1H252.2l-9.51-58.93-8.86,58.93h-16l-18.5-107.1h17.44l8.72,57.4,8.06-57.4H251l8.72,57.27Z" transform="translate(-142.66 -12.62)"/><path class="cls-1" d="M309.68,308.25H292.59V201.15h17.09Z" transform="translate(-142.66 -12.62)"/><path class="cls-1" d="M340.26,201.15l22,72v-72h15.78v107.1H360.26l-23-68.58v68.58H321.52V201.15Z" transform="translate(-142.66 -12.62)"/><path class="cls-1" d="M434.62,308.25h-17.1V201.15h47.35v16.58H434.62v29.32H457v16.58H434.62v44.62Z" transform="translate(-142.66 -12.62)"/><path class="cls-1" d="M492.49,308.25h-17.1V201.15h17.1Z" transform="translate(-142.66 -12.62)"/><path class="cls-1" d="M524.44,201.15l22,72v-72h15.78v107.1H544.3l-22.88-68.58v68.58H505.64V201.15Z" transform="translate(-142.66 -12.62)"/><path class="cls-1" d="M599,311a25.37,25.37,0,0,1-18.63-7.55,24.82,24.82,0,0,1-7.61-18.34V225.64a25,25,0,0,1,7.74-18.47,26.6,26.6,0,0,1,37.26.13,24.92,24.92,0,0,1,7.61,18.47v12.36h-17.1V225.38a9.15,9.15,0,0,0-2.69-6.64,9.15,9.15,0,0,0-13,0,9.14,9.14,0,0,0-2.68,6.64V285a9.1,9.1,0,0,0,2.68,6.63,9.15,9.15,0,0,0,13,0,9.11,9.11,0,0,0,2.69-6.63V270h17.1v15a25.06,25.06,0,0,1-7.74,18.47A26.23,26.23,0,0,1,599,311Z" transform="translate(-142.66 -12.62)"/><path class="cls-1" d="M651.62,263.63v44.62h-17.1V201.15h17.1v45.9h19.73v-45.9h17.09v107.1H671.35V263.63Z" transform="translate(-142.66 -12.62)"/><path class="cls-1" d="M318.64,355.1a11.33,11.33,0,0,1,2.33,2.64,16.63,16.63,0,0,1,1.56,3,14.67,14.67,0,0,1,.9,3.14,23.52,23.52,0,0,1,.26,3h-7a3.42,3.42,0,0,0-.14-1.11,9.72,9.72,0,0,0-.29-1.82,11.78,11.78,0,0,0-.72-2.09,6.36,6.36,0,0,0-1.44-1.95,5.13,5.13,0,0,0-2.3-1.39,7.75,7.75,0,0,0-3.31-.56h-8v8.92H293.9V333.75h15.42a4.17,4.17,0,0,1,1,.13,7,7,0,0,1,2.07.38c.78.25,1.69.62,2.59,1a12.27,12.27,0,0,1,2.72,2c2.59,2.51,3.89,5.9,3.89,10.3a11.84,11.84,0,0,1-.78,4.52A12.08,12.08,0,0,1,318.64,355.1Zm-9-3.37a6.75,6.75,0,0,0,1.54-.13A7.28,7.28,0,0,0,313,351a5.15,5.15,0,0,0,1.54-1.38,4.26,4.26,0,0,0,.69-2.4,10,10,0,0,0-.69-3.78,5.54,5.54,0,0,0-1.68-2.15,3.94,3.94,0,0,0-1.95-.88,11.8,11.8,0,0,0-1.4-.25h-9.06V351.6h9.2v.13Z" transform="translate(-142.66 -12.62)"/><path class="cls-1" d="M343.56,366.87a17,17,0,0,1-6.71-1.27,17.61,17.61,0,0,1-5.52-3.57,17.1,17.1,0,0,1-3.69-5.36,16.78,16.78,0,0,1,0-13,17.1,17.1,0,0,1,3.69-5.36,17.93,17.93,0,0,1,5.52-3.69,18.2,18.2,0,0,1,13.41,0,16.08,16.08,0,0,1,5.53,3.69,17.08,17.08,0,0,1,3.68,5.36,16.66,16.66,0,0,1,0,13,17.08,17.08,0,0,1-3.68,5.36,15.77,15.77,0,0,1-5.53,3.57A19.64,19.64,0,0,1,343.56,366.87Zm0-26.9a9.9,9.9,0,0,0-3.95.77,11.3,11.3,0,0,0-3.29,2.16,9.45,9.45,0,0,0-2.23,3.19,9.65,9.65,0,0,0,0,7.65,10.68,10.68,0,0,0,2.23,3.19,10.47,10.47,0,0,0,11.18,2.17,11.2,11.2,0,0,0,3.29-2.17,9.42,9.42,0,0,0,2.24-3.19,9.65,9.65,0,0,0,0-7.65,11,11,0,0,0-2.24-3.19,9.71,9.71,0,0,0-3.29-2.16A10.82,10.82,0,0,0,343.56,340Z" transform="translate(-142.66 -12.62)"/><path class="cls-1" d="M387.18,366.9l-1.88-5.1H370.86L369,366.9h-8l12.72-34.42h8.71l12.73,34.42Zm-13.51-11.47h8.95l-4.47-12.11Z" transform="translate(-142.66 -12.62)"/><path class="cls-1" d="M409.25,366.9a12.68,12.68,0,0,1-4.88-.89,13,13,0,0,1-4-2.17,10.49,10.49,0,0,1-2.7-3.18,8.67,8.67,0,0,1-1-4h7.43a2,2,0,0,0,.39,1,3,3,0,0,0,1.19,1,6,6,0,0,0,1.84.9,6.69,6.69,0,0,0,2.37.38,8.81,8.81,0,0,0,3.42-.51,7.72,7.72,0,0,0,1.84-1,3,3,0,0,0,.92-1.53,3.48,3.48,0,0,0-.13-1.15,2.45,2.45,0,0,0-.4-1,5,5,0,0,0-2.23-1.27,16.86,16.86,0,0,0-3.95-.39,13.48,13.48,0,0,1-3.29-.38c-.92-.25-1.84-.51-2.5-.76a9,9,0,0,1-3.15-2.17,11.68,11.68,0,0,1-1.58-2.3,8,8,0,0,1-.79-2.29,13.08,13.08,0,0,1-.26-1.91v-1.15a3.51,3.51,0,0,1,.13-1,3.34,3.34,0,0,1,.39-1.53c.27-.64.53-1.15.79-1.91a18.61,18.61,0,0,1,1.45-1.92c2.37-2.29,5.52-3.31,9.6-3.31s7.23,1.15,9.47,3.44a9.88,9.88,0,0,1,1.84,2.42,11.41,11.41,0,0,1,.92,2.43c.13.76.26,1.4.4,1.91v1.26l-7.9-.28v-.09a5,5,0,0,0-.12-1.27A2.7,2.7,0,0,0,414,341a4.26,4.26,0,0,0-1.67-1,9,9,0,0,0-2.82-.38,7.67,7.67,0,0,0-2.7.38,8.78,8.78,0,0,0-1.54.77,2,2,0,0,0-.77,1,2.41,2.41,0,0,0-.13.89v.38h0a2.1,2.1,0,0,0,.13.89,1.81,1.81,0,0,0,.26.77,2.6,2.6,0,0,0,.51.76c.77.77,1.93,1,3.59,1,4.37,0,7.7.9,10.14,2.81a9.57,9.57,0,0,1,3.59,8,7.62,7.62,0,0,1-.77,3.19,10.92,10.92,0,0,1-2.31,3.31,11.62,11.62,0,0,1-4.1,2.55A39.21,39.21,0,0,1,409.25,366.9Z" transform="translate(-142.66 -12.62)"/><path class="cls-1" d="M450.94,340.13h-7.11V366.9h-7.89V340.13h-7.89v-7.65h23l-.13,7.65Z" transform="translate(-142.66 -12.62)"/><path class="cls-1" d="M464.87,340.13v6.37h15.78v7.65H464.87v6.38h15.78v6.37H457V333.75h23.67v6.38Z" transform="translate(-142.66 -12.62)"/><path class="cls-1" d="M513.28,355.1a11.33,11.33,0,0,1,2.33,2.64,16.63,16.63,0,0,1,1.56,3,14.67,14.67,0,0,1,.9,3.14,23.52,23.52,0,0,1,.26,3H512a3.21,3.21,0,0,0-.15-1.11,9.63,9.63,0,0,0-.28-1.82,13.63,13.63,0,0,0-.72-2.09,6.53,6.53,0,0,0-1.44-1.95,5.24,5.24,0,0,0-2.3-1.39,7.8,7.8,0,0,0-3.31-.56h-8.63v8.92h-6.58V333.75h15.54a4.18,4.18,0,0,1,1,.13,7,7,0,0,1,2.07.38c.78.25,1.69.62,2.59,1a12.27,12.27,0,0,1,2.72,2c2.59,2.51,3.89,5.9,3.89,10.3a11.84,11.84,0,0,1-.78,4.52A17.36,17.36,0,0,1,513.28,355.1Zm-9-3.37a6.75,6.75,0,0,0,1.54-.13,7.28,7.28,0,0,0,1.81-.63,5.15,5.15,0,0,0,1.54-1.38,4.26,4.26,0,0,0,.69-2.4,10,10,0,0,0-.69-3.78,5.54,5.54,0,0,0-1.68-2.15,3.94,3.94,0,0,0-1.95-.88,11.8,11.8,0,0,0-1.4-.25h-9.06V351.6h9.2Z" transform="translate(-142.66 -12.62)"/><path class="cls-1" d="M537.2,356.36V366.9h-7.89V356.48l-12-22.73h8.61l7.6,16.08,7.61-16.08h8.46Z" transform="translate(-142.66 -12.62)"/><rect class="cls-1" y="335.16" width="138.09" height="2.55"/><rect class="cls-1" x="409.01" y="335.16" width="138.09" height="2.55"/><rect class="cls-1" y="165.59" width="547.09" height="2.55"/><rect class="cls-1" y="159.21" width="547.09" height="3.82"/><path class="cls-1" d="M239.4,149.39c4.73,0,5.39-1,6.18-1a15.55,15.55,0,0,0,6.44.13c1.85,1.4,4.34,3.7,19.86-3.44,2.76.38,6.84,1.78,11.58,1.91,3,3.7,6.18,6.12,11.7,5.61,4.47,1.53,6.18,1.4,6.18,1.4l.13.13a4.7,4.7,0,0,1,1.84-.38,7,7,0,0,1,2.37.51h0c2.11.12,19.73,1.14,31.3-1.41s24.59-9.18,31.56-14.28,23.81-23.71,25.65-41.18-2.63-27.67-6.05-36.59a20.4,20.4,0,0,1,1.05-17.85c1.45-2.93,2.76-9.82,2.9-10.71S402.34,19,402.34,19s-5-4.21-23.8-5.48c-2-.9-12.63-3.45-29.59,8.41S337,47.77,321.33,63.2,291,98.39,287.8,101.58s-11.71,9.31-11.71,15l3.42-2.8.13,1.91h4.47s-8.28,8.42-13.15,11.6S242.82,147.73,239.4,149.39ZM368,28c1.45-7.39,7.76-6.63,7.76-6.63a6.4,6.4,0,0,1,1.05,8.29C373.94,31.42,371.57,30.53,368,28Z" transform="translate(-142.66 -12.62)"/><path class="cls-1" d="M559,127.33c-4.87-3.18-13.16-11.6-13.16-11.6h4.48l.13-1.91,3.42,2.8c0-5.73-8.55-11.85-11.71-15s-17.88-23-33.53-38.38S498,33.75,481,21.89s-27.62-9.31-29.59-8.41C432.59,14.75,427.59,19,427.59,19s10.13,12.37,10.26,13.26,1.45,7.65,2.9,10.71a20.4,20.4,0,0,1,1.05,17.85c-3.42,8.92-7.89,19.12-6.05,36.59s18.67,36.08,25.64,41.18,20,11.73,31.57,14.28,29.06,1.53,31.3,1.41h0a4.81,4.81,0,0,1,2.36-.51,4.21,4.21,0,0,1,1.84.38l.14-.13s1.57.13,6.18-1.4c5.65.51,8.68-1.91,11.7-5.61,4.74-.13,8.81-1.53,11.58-1.91,15.51,7.14,18,4.84,19.85,3.44a15.59,15.59,0,0,0,6.45-.13c.66,0,1.44,1,6.18,1C587.12,147.73,563.84,130.39,559,127.33ZM453.11,29.64c-2.9-4.72,1.18-8.29,1.18-8.29s6.31-.63,7.76,6.63C458.37,30.53,456,31.42,453.11,29.64Z" transform="translate(-142.66 -12.62)"/><rect class="cls-1" y="340.26" width="138.09" height="1.27"/><rect class="cls-1" x="409.01" y="340.26" width="138.09" height="1.27"/></svg>