<svg id="Layer_1" data-name="Layer 1" xmlns="http://www.w3.org/2000/svg" viewBox="0 0 547.09 354.28"><defs><style>.cls-1{fill:#fcf2e8;}.cls-2{fill:#cbab89;}</style></defs><title>logo-twin-finch-2-color</title><path class="cls-1" d="M51.94,217.25H34.85V200.68H86.14v16.57H69v90.53H50.63l1.31-90.17Z" transform="translate(-34.85 -12.14)"/><path class="cls-1" d="M160.11,200.68h17.45l-17.32,107.1H144.39l-9.52-58.93L126,307.78H110l-18.5-107.1H109l8.72,57.39,8.07-57.39H143.2l8.72,57.26Z" transform="translate(-34.85 -12.14)"/><path class="cls-1" d="M201.87,307.78h-17.1V200.68h17.1Z" transform="translate(-34.85 -12.14)"/><path class="cls-1" d="M232.44,200.68l22,72v-72h15.79v107.1H252.44l-22.95-68.59v68.59H213.71V200.68Z" transform="translate(-34.85 -12.14)"/><path class="cls-1" d="M326.81,307.78h-17.1V200.68h47.34v16.57H326.81v29.33h22.35v16.57H326.81v44.63Z" transform="translate(-34.85 -12.14)"/><path class="cls-1" d="M384.67,307.78H367.58V200.68h17.09Z" transform="translate(-34.85 -12.14)"/><path class="cls-1" d="M416.63,200.68l22,72v-72h15.78v107.1H436.49l-22.88-68.59v68.59H397.82V200.68Z" transform="translate(-34.85 -12.14)"/><path class="cls-1" d="M491.13,310.51A25.34,25.34,0,0,1,472.5,303a24.85,24.85,0,0,1-7.6-18.34V225.16a25,25,0,0,1,7.74-18.47,26.58,26.58,0,0,1,37.25.13,24.9,24.9,0,0,1,7.61,18.47v12.36H500.4V224.9a9.1,9.1,0,0,0-2.68-6.63,9.15,9.15,0,0,0-13,0A9.11,9.11,0,0,0,482,224.9v59.59a9.11,9.11,0,0,0,2.69,6.63,9.13,9.13,0,0,0,13,0,9.1,9.1,0,0,0,2.68-6.63v-15h17.1v15A25,25,0,0,1,509.76,303,26.17,26.17,0,0,1,491.13,310.51Z" transform="translate(-34.85 -12.14)"/><path class="cls-1" d="M543.8,263.15v44.63H526.71V200.68H543.8v45.9h19.73v-45.9h17.1v107.1h-17.1V263.15Z" transform="translate(-34.85 -12.14)"/><path class="cls-2" d="M210.83,354.62a12,12,0,0,1,2.33,2.64,17.22,17.22,0,0,1,1.55,3,14.47,14.47,0,0,1,.91,3.14,23.67,23.67,0,0,1,.26,3h-7a3.26,3.26,0,0,0-.15-1.12,8.77,8.77,0,0,0-.29-1.81,12,12,0,0,0-.71-2.09,6.45,6.45,0,0,0-1.44-2,5.43,5.43,0,0,0-2.3-1.39,7.8,7.8,0,0,0-3.31-.56h-8v8.93h-6.57V333.28H201.5a4.51,4.51,0,0,1,1,.12,7.44,7.44,0,0,1,2.07.38c.78.25,1.68.63,2.59,1a12.84,12.84,0,0,1,2.72,2c2.59,2.51,3.88,5.9,3.88,10.3a11.81,11.81,0,0,1-.77,4.52A12.33,12.33,0,0,1,210.83,354.62Zm-9-3.37a7.16,7.16,0,0,0,1.53-.12,7.79,7.79,0,0,0,1.82-.63,5.28,5.28,0,0,0,1.53-1.39,4.16,4.16,0,0,0,.7-2.4,9.81,9.81,0,0,0-.7-3.78,5.58,5.58,0,0,0-1.67-2.14,3.9,3.9,0,0,0-2-.89,13.87,13.87,0,0,0-1.39-.25h-9.07v11.48h9.21v.12Z" transform="translate(-34.85 -12.14)"/><path class="cls-2" d="M235.74,366.4a17,17,0,0,1-6.7-1.28,17.65,17.65,0,0,1-5.53-3.57,17,17,0,0,1-3.68-5.35,16.69,16.69,0,0,1,0-13,17,17,0,0,1,3.68-5.35,18,18,0,0,1,5.53-3.7,18.2,18.2,0,0,1,13.41,0,15.92,15.92,0,0,1,5.52,3.7,17.06,17.06,0,0,1,3.69,5.35,16.81,16.81,0,0,1,0,13,17.06,17.06,0,0,1-3.69,5.35,15.59,15.59,0,0,1-5.52,3.57A19.42,19.42,0,0,1,235.74,366.4Zm0-26.91a9.86,9.86,0,0,0-3.94.77,11,11,0,0,0-3.29,2.17,9.48,9.48,0,0,0-2.24,3.18,9.65,9.65,0,0,0,0,7.65,10.9,10.9,0,0,0,2.24,3.19,9.73,9.73,0,0,0,3.29,2.17,10.62,10.62,0,0,0,7.89,0,11.33,11.33,0,0,0,3.29-2.17,9.26,9.26,0,0,0,2.23-3.19,9.65,9.65,0,0,0,0-7.65,10.76,10.76,0,0,0-2.23-3.18,9.68,9.68,0,0,0-3.29-2.17A10.87,10.87,0,0,0,235.74,339.49Z" transform="translate(-34.85 -12.14)"/><path class="cls-2" d="M279.37,366.43l-1.89-5.1H263.05l-1.89,5.1h-8L265.91,332h8.71l12.73,34.43ZM265.86,355h8.94l-4.47-12.11Z" transform="translate(-34.85 -12.14)"/><path class="cls-2" d="M301.43,366.43a12.68,12.68,0,0,1-4.87-.9,13.35,13.35,0,0,1-4-2.16,10.63,10.63,0,0,1-2.69-3.19,8.67,8.67,0,0,1-1-3.95h7.44a2.05,2.05,0,0,0,.39,1,3.15,3.15,0,0,0,1.18,1,6.44,6.44,0,0,0,1.84.89,6.69,6.69,0,0,0,2.37.38,8.77,8.77,0,0,0,3.42-.51,7.53,7.53,0,0,0,1.84-1,3,3,0,0,0,.92-1.53,3.51,3.51,0,0,0-.13-1.15,2.45,2.45,0,0,0-.39-1A5.07,5.07,0,0,0,305.5,353a16.83,16.83,0,0,0-3.94-.38,13.36,13.36,0,0,1-3.29-.39c-.92-.25-1.84-.51-2.5-.76a11.22,11.22,0,0,1-1.84-1,12,12,0,0,1-1.32-1.15,12.56,12.56,0,0,1-1.58-2.29,8,8,0,0,1-.78-2.3,11.86,11.86,0,0,1-.27-1.91v-1.15a3.54,3.54,0,0,1,.13-1,3.36,3.36,0,0,1,.4-1.53c.26-.64.52-1.15.79-1.91a17.38,17.38,0,0,1,1.44-1.91c2.37-2.3,5.53-3.32,9.61-3.32s7.23,1.15,9.46,3.44a10,10,0,0,1,1.85,2.43,11.69,11.69,0,0,1,.92,2.42c.13.76.26,1.4.39,1.91v1.26l-7.89-.28v-.09a4.67,4.67,0,0,0-.13-1.27,2.67,2.67,0,0,0-.77-1.28,4.19,4.19,0,0,0-1.67-1,9,9,0,0,0-2.82-.38,7.65,7.65,0,0,0-2.69.38,8.12,8.12,0,0,0-1.54.77,2,2,0,0,0-.77,1,2.44,2.44,0,0,0-.13.89v.38h0a2.17,2.17,0,0,0,.13.9,1.89,1.89,0,0,0,.25.76,2.68,2.68,0,0,0,.52.77c.77.76,1.92,1,3.59,1,4.36,0,7.7.89,10.14,2.8a9.6,9.6,0,0,1,3.59,8,7.78,7.78,0,0,1-.77,3.19,11.33,11.33,0,0,1-2.31,3.32,11.9,11.9,0,0,1-4.11,2.55A40.45,40.45,0,0,1,301.43,366.43Z" transform="translate(-34.85 -12.14)"/><path class="cls-2" d="M343.13,339.65H336v26.78h-7.89V339.65h-7.89V332h23l-.13,7.65Z" transform="translate(-34.85 -12.14)"/><path class="cls-2" d="M357.05,339.65V346h15.79v7.65H357.05v6.37h15.79v6.38H349.16V333.28h23.68v6.37Z" transform="translate(-34.85 -12.14)"/><path class="cls-2" d="M405.47,354.62a12,12,0,0,1,2.33,2.64,17.22,17.22,0,0,1,1.55,3,14.47,14.47,0,0,1,.91,3.14,23.67,23.67,0,0,1,.26,3h-6.39a3.48,3.48,0,0,0-.14-1.12,8.77,8.77,0,0,0-.29-1.81,11.25,11.25,0,0,0-.72-2.09,6.29,6.29,0,0,0-1.44-2,5.31,5.31,0,0,0-2.3-1.39,7.75,7.75,0,0,0-3.31-.56H387.3v8.93h-6.57V333.28h15.54a4.51,4.51,0,0,1,1,.12,7.44,7.44,0,0,1,2.07.38c.78.25,1.68.63,2.59,1a12.84,12.84,0,0,1,2.72,2c2.59,2.51,3.88,5.9,3.88,10.3a12,12,0,0,1-.77,4.52A17.86,17.86,0,0,1,405.47,354.62Zm-9-3.37a7.21,7.21,0,0,0,1.53-.12,7.79,7.79,0,0,0,1.82-.63,5.28,5.28,0,0,0,1.53-1.39,4.16,4.16,0,0,0,.7-2.4,9.81,9.81,0,0,0-.7-3.78,5.58,5.58,0,0,0-1.67-2.14,3.9,3.9,0,0,0-2-.89,13.87,13.87,0,0,0-1.39-.25H387.3v11.48h9.21Z" transform="translate(-34.85 -12.14)"/><path class="cls-2" d="M429.39,355.88v10.55H421.5V356l-12.06-22.72h8.61l7.61,16.07,7.6-16.07h8.47Z" transform="translate(-34.85 -12.14)"/><rect class="cls-2" y="335.16" width="138.09" height="2.55"/><rect class="cls-2" x="409.01" y="335.16" width="138.09" height="2.55"/><rect class="cls-2" y="165.59" width="547.09" height="2.55"/><rect class="cls-2" y="159.21" width="547.09" height="3.82"/><path class="cls-2" d="M131.58,148.91c4.74,0,5.4-1,6.19-1a15.54,15.54,0,0,0,6.44.13c1.84,1.4,4.34,3.7,19.86-3.44,2.76.38,6.84,1.78,11.57,1.91,3,3.7,6.18,6.12,11.71,5.61,4.47,1.53,6.18,1.4,6.18,1.4l.13.13a4.85,4.85,0,0,1,1.84-.38,7,7,0,0,1,2.37.51h0c2.1.13,19.72,1.15,31.3-1.4s24.59-9.18,31.56-14.28,23.8-23.72,25.65-41.19-2.64-27.66-6.05-36.59a20.37,20.37,0,0,1,1.05-17.85c1.44-2.93,2.76-9.82,2.89-10.71s10.26-13.26,10.26-13.26-5-4.2-23.8-5.48c-2-.89-12.63-3.44-29.6,8.42s-12,25.88-27.61,41.3S183.14,97.91,180,101.1s-11.7,9.31-11.7,15.05l3.42-2.81.13,1.91h4.47s-8.29,8.42-13.15,11.61S135,147.26,131.58,148.91ZM260.2,27.51c1.45-7.4,7.76-6.63,7.76-6.63A6.38,6.38,0,0,1,269,29.16C266.12,31,263.75,30.06,260.2,27.51Z" transform="translate(-34.85 -12.14)"/><path class="cls-2" d="M451.16,126.86C446.3,123.67,438,115.25,438,115.25h4.47l.13-1.91,3.42,2.81c0-5.74-8.55-11.86-11.7-15.05s-17.89-22.95-33.54-38.38-10.65-29.45-27.62-41.3S345.56,12.11,343.58,13c-18.8,1.28-23.8,5.48-23.8,5.48S329.91,30.85,330,31.74s1.44,7.65,2.89,10.71A20.37,20.37,0,0,1,334,60.3c-3.42,8.93-7.89,19.13-6.05,36.59s18.68,36.09,25.65,41.19,20,11.73,31.56,14.28,29.07,1.53,31.3,1.4h0a5,5,0,0,1,2.37-.51,4.39,4.39,0,0,1,1.84.38l.13-.13s1.58.13,6.18-1.4c5.66.51,8.68-1.91,11.71-5.61,4.73-.13,8.81-1.53,11.57-1.91,15.52,7.14,18,4.84,19.86,3.44a15.54,15.54,0,0,0,6.44-.13c.66,0,1.45,1,6.18,1C479.3,147.26,456,129.92,451.16,126.86ZM345.29,29.16c-2.89-4.71,1.19-8.28,1.19-8.28s6.31-.64,7.76,6.63C350.55,30.06,348.19,31,345.29,29.16Z" transform="translate(-34.85 -12.14)"/><rect class="cls-2" y="340.26" width="138.09" height="1.27"/><rect class="cls-2" x="409.01" y="340.26" width="138.09" height="1.27"/></svg>