<svg id="Layer_1" data-name="Layer 1" xmlns="http://www.w3.org/2000/svg" viewBox="0 0 167.17 104.37"><defs><style>.cls-1{fill:#fff;}.cls-2{fill:#da1c24;}</style></defs><path class="cls-1" d="M60.71,2.87A21.32,21.32,0,0,1,81.89,24.06V85.91a21.35,21.35,0,0,1-21.18,21.34H4.58V2.87Zm-5.57,30a7.23,7.23,0,0,0-7.58-7.58H31.48V84.67H47.56a7.22,7.22,0,0,0,7.58-7.58Z" transform="translate(-4.58 -2.87)"/><rect class="cls-1" x="104.22" y="62.93" width="25.51" height="41.44"/><rect class="cls-1" x="104.22" width="25.51" height="39.89"/><path class="cls-1" d="M171.75,8.44a2.11,2.11,0,0,1-2.1,2.1h-6.14a2.11,2.11,0,0,1-2.11-2.1V2.87h10.35Zm-3-.55a.72.72,0,0,0,.75-.75V5.54h-5.89v1.6a.71.71,0,0,0,.75.75Z" transform="translate(-4.58 -2.87)"/><path class="cls-1" d="M161.4,21V18.32h3.24V16H161.4V13.3h9.14a1.15,1.15,0,0,1,1.21,1.21v5.26A1.15,1.15,0,0,1,170.54,21Zm5.36-2.66h2.57c.18,0,.3-.16.3-.37V16.29a.31.31,0,0,0-.3-.32h-2.57Z" transform="translate(-4.58 -2.87)"/><path class="cls-1" d="M171.75,31.49,161.4,28.41V25.83l10.35-3v2.86l-6.58,1.44,6.58,1.73Z" transform="translate(-4.58 -2.87)"/><path class="cls-1" d="M161.4,36.07V33.42h10.35v2.65Z" transform="translate(-4.58 -2.87)"/><path class="cls-1" d="M171.75,44.58a2.11,2.11,0,0,1-2.1,2.1h-6.14a2.11,2.11,0,0,1-2.11-2.1V39h10.35Zm-3-.55a.72.72,0,0,0,.75-.75V41.69h-5.89v1.59a.71.71,0,0,0,.75.75Z" transform="translate(-4.58 -2.87)"/><path class="cls-2" d="M161.4,57.4V54.74h4.11V52.2H161.4V49.53h10.35V52.2h-4v2.54h4V57.4Z" transform="translate(-4.58 -2.87)"/><path class="cls-1" d="M161.4,67.94V65.27l3.24.06V63l-3.24-.07V60.25h9.14a1.15,1.15,0,0,1,1.21,1.22v5.26a1.15,1.15,0,0,1-1.21,1.21Zm5.36-2.64,2.57,0c.18,0,.3-.15.3-.37V63.25a.31.31,0,0,0-.3-.33l-2.57,0Z" transform="translate(-4.58 -2.87)"/><path class="cls-1" d="M171.75,77.29a1.17,1.17,0,0,1-1.17,1.17h-4.73a1.19,1.19,0,0,1-1.17-1.17v-.07l-3.28,1.27V75.88l3.28-1.29V73.46H161.4V70.79h10.35Zm-2.38-1.49a.16.16,0,0,0,.16-.13V73.46h-2.76v2.21a.15.15,0,0,0,.13.13Z" transform="translate(-4.58 -2.87)"/><path class="cls-1" d="M167.09,83.66H161.4V81.2h10.35v2.46L166,86.75h5.71v2.46H161.4V86.68Z" transform="translate(-4.58 -2.87)"/><path class="cls-1" d="M171.75,92.15V94.8h-8.11v3.3H161.4V92.15Z" transform="translate(-4.58 -2.87)"/><path class="cls-1" d="M161.4,102l3.25,0v-1.38a1.21,1.21,0,0,1,1.23-1.17l5.87,0v2.67l-4.56,0a.18.18,0,0,0-.15.17v2.13c0,.09.08.11.15.11l4.56,0v2.67l-5.87,0a1.21,1.21,0,0,1-1.23-1.17v-1.37l-3.25,0Z" transform="translate(-4.58 -2.87)"/></svg>