<svg id="Layer_1" data-name="Layer 1" xmlns="http://www.w3.org/2000/svg" viewBox="0 0 167.17 104.37"><defs><style>.cls-1{fill:#da1c24;}.cls-2{fill:#fff;}</style></defs><path class="cls-1" d="M56.13,0A21.31,21.31,0,0,1,77.31,21.18V83a21.35,21.35,0,0,1-21.18,21.34H0V0ZM50.56,30A7.22,7.22,0,0,0,43,22.42H26.9V81.8H43a7.23,7.23,0,0,0,7.58-7.58Z"/><rect class="cls-1" x="104.22" y="62.93" width="25.51" height="41.44"/><rect class="cls-1" x="104.22" width="25.51" height="39.89"/><path class="cls-1" d="M167.17,5.57a2.11,2.11,0,0,1-2.1,2.1h-6.14a2.11,2.11,0,0,1-2.11-2.1V0h10.35Zm-3-.56a.71.71,0,0,0,.75-.75V2.67h-5.89V4.26a.71.71,0,0,0,.75.75Z"/><path class="cls-1" d="M156.82,18.11V15.44h3.24V13.09h-3.24V10.43H166a1.15,1.15,0,0,1,1.21,1.21V16.9A1.15,1.15,0,0,1,166,18.11Zm5.36-2.67h2.57c.18,0,.3-.15.3-.37V13.42a.31.31,0,0,0-.3-.33h-2.57Z"/><path class="cls-1" d="M167.17,28.61l-10.35-3.08V23l10.35-3V22.8l-6.58,1.44L167.17,26Z"/><path class="cls-1" d="M156.82,33.2V30.55h10.35V33.2Z"/><path class="cls-1" d="M167.17,41.71a2.11,2.11,0,0,1-2.1,2.1h-6.14a2.11,2.11,0,0,1-2.11-2.1V36.14h10.35Zm-3-.55a.72.72,0,0,0,.75-.76V38.81h-5.89V40.4a.72.72,0,0,0,.75.76Z"/><path class="cls-2" d="M156.82,54.53V51.86h4.11V49.33h-4.11V46.66h10.35v2.67h-4v2.53h4v2.67Z"/><path class="cls-1" d="M156.82,65.06V62.39l3.24.07V60.11l-3.24-.06V57.38H166a1.15,1.15,0,0,1,1.21,1.21v5.26A1.15,1.15,0,0,1,166,65.06Zm5.36-2.64,2.57,0c.18,0,.3-.15.3-.36V60.37a.31.31,0,0,0-.3-.32l-2.57,0Z"/><path class="cls-1" d="M167.17,74.42A1.16,1.16,0,0,1,166,75.58h-4.74a1.18,1.18,0,0,1-1.17-1.16v-.08l-3.28,1.27V73l3.28-1.29V70.58h-3.28V67.91h10.35Zm-2.38-1.49a.17.17,0,0,0,.16-.14V70.58h-2.76v2.21a.16.16,0,0,0,.13.14Z"/><path class="cls-1" d="M162.51,80.78h-5.69V78.33h10.35v2.45l-5.7,3.1h5.7v2.45H156.82V83.8Z"/><path class="cls-1" d="M167.17,89.27v2.66h-8.11v3.3h-2.24v-6Z"/><path class="cls-1" d="M156.82,99.15l3.25,0V97.79a1.2,1.2,0,0,1,1.23-1.16l5.87,0v2.67l-4.56,0a.19.19,0,0,0-.15.17v2.14c0,.09.08.1.15.1l4.56,0v2.67l-5.87,0a1.21,1.21,0,0,1-1.23-1.16v-1.37l-3.25,0Z"/></svg>